<?xml version="1.0" standalone="no"?>
<!DOCTYPE svg PUBLIC "-//W3C//DTD SVG 20010904//EN"
 "http://www.w3.org/TR/2001/REC-SVG-20010904/DTD/svg10.dtd">
<svg version="1.0" xmlns="http://www.w3.org/2000/svg"
 width="340.000000pt" height="340.000000pt" viewBox="0 0 340.000000 340.000000"
 preserveAspectRatio="xMidYMid meet">
<metadata>
Created by potrace 1.14, written by Peter Selinger 2001-2017
</metadata>
<g transform="translate(0.000000,340.000000) scale(0.100000,-0.100000)"
fill="#000000" stroke="none">
<path d="M1610 3370 c-25 -6 -74 -24 -110 -41 -59 -29 -126 -93 -727 -693
-695 -694 -689 -688 -727 -815 -32 -109 -13 -251 47 -353 14 -24 326 -343 694
-709 613 -611 673 -668 729 -692 130 -57 263 -54 394 10 72 34 101 62 703 662
346 344 648 652 672 684 70 92 89 152 90 282 0 104 -2 114 -34 185 -34 73 -51
91 -670 714 -350 351 -662 658 -694 682 -32 23 -83 52 -114 64 -64 24 -187 34
-253 20z m200 -226 c19 -8 99 -79 180 -159 l146 -145 -211 -210 c-116 -116
-215 -210 -220 -210 -5 0 -104 94 -220 210 l-211 210 136 133 c74 74 149 144
166 155 62 42 155 49 234 16z m-132 -903 c25 -10 35 -10 58 2 16 9 136 123
266 254 l237 239 263 -263 263 -263 -238 -238 c-218 -218 -237 -240 -237 -272
0 -31 20 -54 237 -272 l238 -238 -275 -275 -275 -275 -240 240 c-204 203 -245
240 -270 240 -25 0 -66 -37 -270 -240 l-240 -240 -275 275 -275 275 238 238
c217 218 237 241 237 272 0 32 -19 54 -237 272 l-238 238 265 265 265 265 237
-243 c130 -134 250 -250 266 -256z m-933 -341 l200 -200 -203 -203 -203 -202
-127 130 c-134 136 -162 180 -170 256 -9 94 17 139 161 287 72 72 133 132 136
132 4 0 96 -90 206 -200z m2258 72 c136 -138 166 -186 167 -263 0 -94 -23
-133 -166 -279 l-133 -135 -203 202 -203 203 200 200 c110 110 202 200 205
200 3 0 63 -58 133 -128z m-1022 -1565 c-145 -143 -184 -167 -276 -167 -91 0
-128 23 -275 166 l-131 128 203 203 203 203 203 -202 203 -203 -130 -128z"/>
</g>
</svg>
